<?xml version="1.0" encoding="UTF-8"?>
<svg width="512" height="512" viewBox="0 0 512 512" fill="none" xmlns="http://www.w3.org/2000/svg">
  <rect width="512" height="512" rx="256" fill="#4F46E5"/>
  <path d="M256 128C202.3 128 160 170.3 160 224V352C160 405.7 202.3 448 256 448C309.7 448 352 405.7 352 352V224C352 170.3 309.7 128 256 128ZM304 352C304 379.7 282.5 402.6 256 404.8C229.5 402.6 208 379.7 208 352V224C208 196.3 229.5 173.4 256 171.2C282.5 173.4 304 196.3 304 224V352Z" fill="white"/>
  <path d="M256 64C194.1 64 144 114.1 144 176V336C144 397.9 194.1 448 256 448C317.9 448 368 397.9 368 336V176C368 114.1 317.9 64 256 64ZM320 336C320 371.3 291.3 400 256 400C220.7 400 192 371.3 192 336V176C192 140.7 220.7 112 256 112C291.3 112 320 140.7 320 176V336Z" fill="white"/>
</svg> 