<?xml version="1.0" encoding="UTF-8"?>
<svg width="128" height="128" viewBox="0 0 128 128" fill="none" xmlns="http://www.w3.org/2000/svg">
  <circle cx="64" cy="64" r="64" fill="#4F46E5"/>
  <path d="M64 32C48.536 32 36 44.536 36 60V84C36 87.314 38.686 90 42 90H86C89.314 90 92 87.314 92 84V60C92 44.536 79.464 32 64 32Z" fill="#F4F4F5"/>
  <path d="M64 44C56.268 44 50 50.268 50 58V72C50 73.657 51.343 75 53 75H75C76.657 75 78 73.657 78 72V58C78 50.268 71.732 44 64 44Z" fill="#4F46E5"/>
  <circle cx="64" cy="58" r="6" fill="#F4F4F5"/>
  <path d="M58 72C58 68.686 60.686 66 64 66C67.314 66 70 68.686 70 72" stroke="#F4F4F5" stroke-width="4" stroke-linecap="round"/>
</svg> 